<svg viewBox="0 0 512 512" xmlns="http://www.w3.org/2000/svg"><style>.st1{fill:#fff}</style><g id="Background_1_"><radialGradient cx="50.158" cy="15.105" gradientTransform="matrix(.05234 -.9986 .8488 .04449 12 498.8)" gradientUnits="userSpaceOnUse" id="SVGID_1_" r="684.445"><stop offset="0" stop-color="#fed576"/><stop offset=".263" stop-color="#f47133"/><stop offset=".609" stop-color="#bc3081"/><stop offset="1" stop-color="#4c63d2"/></radialGradient><path d="M18.8 250.1v12.8C22.1 385.3 120.7 483.6 238 492.8h36.1c118-9.3 214.9-108.5 218.1-230.1v-12.6C489 126.3 388.7 25.9 267.9 19.7c-130-6.6-245.5 97.7-249.1 230.4z" fill="url(#SVGID_1_)"/></g><g id="Symbol"><path class="st1" d="M256.6 138.3c37.7 0 42.2.1 57.1.8 13.8.6 21.2 3 26.2 4.9 6.6 2.6 11.3 5.7 16.2 10.7 4.9 5 8 9.8 10.6 16.5 1.9 5.1 4.2 12.7 4.9 26.7.7 15.2.8 19.7.8 58.1s-.1 42.9-.8 58.1c-.6 14-2.9 21.6-4.9 26.7-2.6 6.7-5.6 11.5-10.6 16.5-4.9 5-9.6 8.1-16.2 10.7-5 2-12.5 4.3-26.2 4.9-14.9.7-19.4.8-57.1.8s-42.2-.1-57.1-.8c-13.8-.6-21.2-3-26.2-4.9-6.6-2.6-11.3-5.7-16.2-10.7-4.9-5-8-9.8-10.6-16.5-1.9-5.1-4.2-12.7-4.9-26.7-.7-15.2-.8-19.7-.8-58.1s.1-42.9.8-58.1c.6-14 2.9-21.6 4.9-26.7 2.6-6.7 5.6-11.5 10.6-16.5 4.9-5 9.6-8.1 16.2-10.7 5-2 12.5-4.3 26.2-4.9 14.9-.6 19.4-.8 57.1-.8m0-25.9c-38.4 0-43.2.2-58.2.9s-25.3 3.1-34.3 6.7c-9.3 3.7-17.2 8.6-25 16.6-7.9 8-12.7 16-16.3 25.5-3.5 9.1-5.9 19.6-6.6 34.9-.7 15.3-.8 20.2-.8 59.2s.2 43.9.8 59.2c.7 15.3 3.1 25.7 6.6 34.9 3.6 9.4 8.4 17.5 16.3 25.5s15.7 12.9 25 16.6c9 3.6 19.3 6 34.3 6.7 15.1.7 19.9.9 58.2.9s43.2-.2 58.2-.9 25.3-3.1 34.3-6.7c9.3-3.7 17.2-8.6 25-16.6 7.9-8 12.7-16 16.3-25.5 3.5-9.1 5.9-19.6 6.6-34.9.7-15.3.8-20.2.8-59.2s-.2-43.9-.8-59.2c-.7-15.3-3.1-25.7-6.6-34.9-3.6-9.4-8.4-17.5-16.3-25.5s-15.7-12.9-25-16.6c-9-3.6-19.3-6-34.3-6.7-15-.7-19.9-.9-58.2-.9z"/><path class="st1" d="M256.6 182.3c-40.1 0-72.5 33-72.5 73.8s32.5 73.8 72.5 73.8 72.5-33 72.5-73.8-32.5-73.8-72.5-73.8zm0 121.7c-26 0-47.1-21.4-47.1-47.9s21.1-47.9 47.1-47.9 47.1 21.4 47.1 47.9-21.1 47.9-47.1 47.9z"/><ellipse class="st1" cx="332" cy="179.4" rx="16.9" ry="17.2"/></g></svg>